<svg width="165" height="60" viewBox="0 0 165 60" fill="none" xmlns="http://www.w3.org/2000/svg">
<rect width="165" height="60" rx="3" fill="#EDEDED"/>
<path d="M63.7898 38.7386C62.5852 38.7386 61.5114 38.517 60.5682 38.0739C59.6307 37.6307 58.8864 37.0199 58.3352 36.2415C57.7841 35.4631 57.4972 34.571 57.4744 33.5653H61.054C61.0938 34.2415 61.3778 34.7898 61.9062 35.2102C62.4347 35.6307 63.0625 35.8409 63.7898 35.8409C64.3693 35.8409 64.8807 35.7131 65.3239 35.4574C65.7727 35.196 66.1222 34.8352 66.3722 34.375C66.6278 33.9091 66.7557 33.375 66.7557 32.7727C66.7557 32.1591 66.625 31.6193 66.3636 31.1534C66.108 30.6875 65.7528 30.3239 65.2983 30.0625C64.8438 29.8011 64.3239 29.6676 63.7386 29.6619C63.2273 29.6619 62.7301 29.767 62.2472 29.9773C61.7699 30.1875 61.3977 30.4744 61.1307 30.8381L57.8494 30.25L58.6761 21.0455H69.3466V24.0625H61.7188L61.267 28.4347H61.3693C61.6761 28.0028 62.1392 27.6449 62.7585 27.3608C63.3778 27.0767 64.071 26.9347 64.8381 26.9347C65.8892 26.9347 66.8267 27.1818 67.6506 27.6761C68.4744 28.1705 69.125 28.8494 69.6023 29.7131C70.0795 30.571 70.3153 31.5597 70.3097 32.679C70.3153 33.8551 70.0426 34.9006 69.4915 35.8153C68.946 36.7244 68.1818 37.4403 67.1989 37.9631C66.2216 38.4801 65.0852 38.7386 63.7898 38.7386ZM79.7273 38.8835C78.2614 38.8778 77 38.517 75.9432 37.8011C74.892 37.0852 74.0824 36.0483 73.5142 34.6903C72.9517 33.3324 72.6733 31.6989 72.679 29.7898C72.679 27.8864 72.9602 26.2642 73.5227 24.9233C74.0909 23.5824 74.9006 22.5625 75.9517 21.8636C77.0085 21.1591 78.267 20.8068 79.7273 20.8068C81.1875 20.8068 82.4432 21.1591 83.4943 21.8636C84.5511 22.5682 85.3636 23.5909 85.9318 24.9318C86.5 26.267 86.7813 27.8864 86.7756 29.7898C86.7756 31.7045 86.4915 33.3409 85.9233 34.6989C85.3608 36.0568 84.554 37.0937 83.5028 37.8097C82.4517 38.5256 81.1932 38.8835 79.7273 38.8835ZM79.7273 35.8239C80.7273 35.8239 81.5256 35.321 82.1222 34.3153C82.7188 33.3097 83.0142 31.8011 83.0085 29.7898C83.0085 28.4659 82.8722 27.3636 82.5994 26.483C82.3324 25.6023 81.9517 24.9403 81.4574 24.4972C80.9688 24.054 80.392 23.8324 79.7273 23.8324C78.733 23.8324 77.9375 24.3295 77.3409 25.3239C76.7443 26.3182 76.4432 27.8068 76.4375 29.7898C76.4375 31.1307 76.571 32.25 76.8381 33.1477C77.1108 34.0398 77.4943 34.7102 77.9886 35.1591C78.483 35.6023 79.0625 35.8239 79.7273 35.8239ZM98.9609 35.2273V34.3068C98.9609 33.608 99.1087 32.9659 99.4041 32.3807C99.7053 31.7898 100.14 31.3182 100.708 30.9659C101.282 30.608 101.981 30.429 102.805 30.429C103.64 30.429 104.342 30.6051 104.91 30.9574C105.484 31.3097 105.915 31.7812 106.205 32.3722C106.501 32.9574 106.648 33.6023 106.648 34.3068V35.2273C106.648 35.9261 106.501 36.571 106.205 37.1619C105.91 37.7472 105.475 38.2159 104.901 38.5682C104.327 38.9261 103.629 39.1051 102.805 39.1051C101.969 39.1051 101.268 38.9261 100.7 38.5682C100.131 38.2159 99.6996 37.7472 99.4041 37.1619C99.1087 36.571 98.9609 35.9261 98.9609 35.2273ZM101.441 34.3068V35.2273C101.441 35.6307 101.538 36.0114 101.731 36.3693C101.93 36.7273 102.288 36.9062 102.805 36.9062C103.322 36.9062 103.674 36.7301 103.862 36.3778C104.055 36.0256 104.151 35.642 104.151 35.2273V34.3068C104.151 33.892 104.06 33.5057 103.879 33.1477C103.697 32.7898 103.339 32.6108 102.805 32.6108C102.293 32.6108 101.938 32.7898 101.739 33.1477C101.54 33.5057 101.441 33.892 101.441 34.3068ZM90.0036 25.2386V24.3182C90.0036 23.6136 90.1541 22.9687 90.4553 22.3835C90.7564 21.7926 91.1911 21.321 91.7592 20.9688C92.3331 20.6165 93.0263 20.4403 93.8388 20.4403C94.6797 20.4403 95.3842 20.6165 95.9524 20.9688C96.5206 21.321 96.9524 21.7926 97.2479 22.3835C97.5433 22.9687 97.6911 23.6136 97.6911 24.3182V25.2386C97.6911 25.9432 97.5405 26.5881 97.2393 27.1733C96.9439 27.7585 96.5092 28.2273 95.9354 28.5795C95.3672 28.9261 94.6683 29.0994 93.8388 29.0994C93.0092 29.0994 92.3075 28.9233 91.7337 28.571C91.1655 28.2131 90.7337 27.7443 90.4382 27.1648C90.1484 26.5795 90.0036 25.9375 90.0036 25.2386ZM92.5007 24.3182V25.2386C92.5007 25.6534 92.5973 26.0369 92.7905 26.3892C92.9893 26.7415 93.3388 26.9176 93.8388 26.9176C94.3615 26.9176 94.7166 26.7415 94.9041 26.3892C95.0973 26.0369 95.1939 25.6534 95.1939 25.2386V24.3182C95.1939 23.9034 95.103 23.517 94.9212 23.1591C94.7393 22.8011 94.3786 22.6222 93.8388 22.6222C93.3331 22.6222 92.9837 22.804 92.7905 23.1676C92.5973 23.5312 92.5007 23.9148 92.5007 24.3182ZM91.1286 38.5L103.129 21.0455H105.362L93.3615 38.5H91.1286Z" fill="#292929"/>
</svg>
