<svg width="165" height="60" viewBox="0 0 165 60" fill="none" xmlns="http://www.w3.org/2000/svg">
<rect width="165" height="60" rx="3" fill="#EDEDED"/>
<path d="M57.4148 38.5V35.8409L63.6278 30.0881C64.1563 29.5767 64.5994 29.1165 64.9574 28.7074C65.321 28.2983 65.5966 27.8977 65.7841 27.5057C65.9716 27.108 66.0653 26.679 66.0653 26.2188C66.0653 25.7074 65.9489 25.267 65.7159 24.8977C65.483 24.5227 65.1648 24.2358 64.7614 24.0369C64.358 23.8324 63.9006 23.7301 63.3892 23.7301C62.8551 23.7301 62.3892 23.8381 61.9915 24.054C61.5938 24.2699 61.2869 24.5795 61.071 24.983C60.8551 25.3864 60.7472 25.8665 60.7472 26.4233H57.2443C57.2443 25.2812 57.5028 24.2898 58.0199 23.4489C58.5369 22.608 59.2614 21.9574 60.1932 21.4972C61.125 21.0369 62.1989 20.8068 63.4148 20.8068C64.6648 20.8068 65.7528 21.0284 66.679 21.4716C67.6108 21.9091 68.3352 22.517 68.8523 23.2955C69.3693 24.0739 69.6278 24.9659 69.6278 25.9716C69.6278 26.6307 69.4972 27.2812 69.2358 27.9233C68.9801 28.5653 68.5227 29.2784 67.8636 30.0625C67.2045 30.8409 66.2756 31.7756 65.0767 32.8665L62.5284 35.3636V35.483H69.858V38.5H57.4148ZM79.3757 38.8835C77.9098 38.8778 76.6484 38.517 75.5916 37.8011C74.5405 37.0852 73.7308 36.0483 73.1626 34.6903C72.6001 33.3324 72.3217 31.6989 72.3274 29.7898C72.3274 27.8864 72.6087 26.2642 73.1712 24.9233C73.7393 23.5824 74.549 22.5625 75.6001 21.8636C76.657 21.1591 77.9155 20.8068 79.3757 20.8068C80.8359 20.8068 82.0916 21.1591 83.1428 21.8636C84.1996 22.5682 85.0121 23.5909 85.5803 24.9318C86.1484 26.267 86.4297 27.8864 86.424 29.7898C86.424 31.7045 86.1399 33.3409 85.5717 34.6989C85.0092 36.0568 84.2024 37.0937 83.1513 37.8097C82.1001 38.5256 80.8416 38.8835 79.3757 38.8835ZM79.3757 35.8239C80.3757 35.8239 81.174 35.321 81.7706 34.3153C82.3672 33.3097 82.6626 31.8011 82.657 29.7898C82.657 28.4659 82.5206 27.3636 82.2479 26.483C81.9808 25.6023 81.6001 24.9403 81.1058 24.4972C80.6172 24.054 80.0405 23.8324 79.3757 23.8324C78.3814 23.8324 77.5859 24.3295 76.9893 25.3239C76.3928 26.3182 76.0916 27.8068 76.0859 29.7898C76.0859 31.1307 76.2195 32.25 76.4865 33.1477C76.7592 34.0398 77.1428 34.7102 77.6371 35.1591C78.1314 35.6023 78.7109 35.8239 79.3757 35.8239ZM98.6094 35.2273V34.3068C98.6094 33.608 98.7571 32.9659 99.0526 32.3807C99.3537 31.7898 99.7884 31.3182 100.357 30.9659C100.93 30.608 101.629 30.429 102.453 30.429C103.288 30.429 103.99 30.6051 104.558 30.9574C105.132 31.3097 105.564 31.7812 105.854 32.3722C106.149 32.9574 106.297 33.6023 106.297 34.3068V35.2273C106.297 35.9261 106.149 36.571 105.854 37.1619C105.558 37.7472 105.124 38.2159 104.55 38.5682C103.976 38.9261 103.277 39.1051 102.453 39.1051C101.618 39.1051 100.916 38.9261 100.348 38.5682C99.7798 38.2159 99.348 37.7472 99.0526 37.1619C98.7571 36.571 98.6094 35.9261 98.6094 35.2273ZM101.089 34.3068V35.2273C101.089 35.6307 101.186 36.0114 101.379 36.3693C101.578 36.7273 101.936 36.9062 102.453 36.9062C102.97 36.9062 103.322 36.7301 103.51 36.3778C103.703 36.0256 103.8 35.642 103.8 35.2273V34.3068C103.8 33.892 103.709 33.5057 103.527 33.1477C103.345 32.7898 102.987 32.6108 102.453 32.6108C101.942 32.6108 101.587 32.7898 101.388 33.1477C101.189 33.5057 101.089 33.892 101.089 34.3068ZM89.652 25.2386V24.3182C89.652 23.6136 89.8026 22.9687 90.1037 22.3835C90.4048 21.7926 90.8395 21.321 91.4077 20.9688C91.9815 20.6165 92.6747 20.4403 93.4872 20.4403C94.3281 20.4403 95.0327 20.6165 95.6009 20.9688C96.169 21.321 96.6009 21.7926 96.8963 22.3835C97.1918 22.9687 97.3395 23.6136 97.3395 24.3182V25.2386C97.3395 25.9432 97.1889 26.5881 96.8878 27.1733C96.5923 27.7585 96.1577 28.2273 95.5838 28.5795C95.0156 28.9261 94.3168 29.0994 93.4872 29.0994C92.6577 29.0994 91.956 28.9233 91.3821 28.571C90.8139 28.2131 90.3821 27.7443 90.0866 27.1648C89.7969 26.5795 89.652 25.9375 89.652 25.2386ZM92.1491 24.3182V25.2386C92.1491 25.6534 92.2457 26.0369 92.4389 26.3892C92.6378 26.7415 92.9872 26.9176 93.4872 26.9176C94.0099 26.9176 94.3651 26.7415 94.5526 26.3892C94.7457 26.0369 94.8423 25.6534 94.8423 25.2386V24.3182C94.8423 23.9034 94.7514 23.517 94.5696 23.1591C94.3878 22.8011 94.027 22.6222 93.4872 22.6222C92.9815 22.6222 92.6321 22.804 92.4389 23.1676C92.2457 23.5312 92.1491 23.9148 92.1491 24.3182ZM90.777 38.5L102.777 21.0455H105.01L93.0099 38.5H90.777Z" fill="#292929"/>
</svg>
