<svg width="165" height="60" viewBox="0 0 165 60" fill="none" xmlns="http://www.w3.org/2000/svg">
<rect width="165" height="60" rx="3" fill="#EDEDED"/>
<path d="M63.8665 38.7386C62.5938 38.7386 61.4602 38.5199 60.4659 38.0824C59.4773 37.6392 58.696 37.0312 58.1222 36.2585C57.554 35.4801 57.2614 34.5824 57.2443 33.5653H60.9602C60.983 33.9915 61.1222 34.3665 61.3778 34.6903C61.6392 35.0085 61.9858 35.2557 62.4176 35.4318C62.8494 35.608 63.3352 35.696 63.875 35.696C64.4375 35.696 64.9347 35.5966 65.3665 35.3977C65.7983 35.1989 66.1364 34.9233 66.3807 34.571C66.625 34.2187 66.7472 33.8125 66.7472 33.3523C66.7472 32.8864 66.6165 32.4744 66.3551 32.1165C66.0994 31.7528 65.7301 31.4687 65.2472 31.2642C64.7699 31.0597 64.2017 30.9574 63.5426 30.9574H61.9148V28.2472H63.5426C64.0994 28.2472 64.5909 28.1506 65.017 27.9574C65.4489 27.7642 65.7841 27.4972 66.0227 27.1562C66.2614 26.8097 66.3807 26.4062 66.3807 25.946C66.3807 25.5085 66.2756 25.125 66.0653 24.7955C65.8608 24.4602 65.571 24.1989 65.196 24.0114C64.8267 23.8239 64.3949 23.7301 63.9006 23.7301C63.4006 23.7301 62.9432 23.821 62.5284 24.0028C62.1136 24.179 61.7812 24.4318 61.5312 24.7614C61.2812 25.0909 61.1477 25.4773 61.1307 25.9205H57.5938C57.6108 24.9148 57.8977 24.0284 58.4545 23.2614C59.0114 22.4943 59.7614 21.8949 60.7045 21.4631C61.6534 21.0256 62.7244 20.8068 63.9176 20.8068C65.1222 20.8068 66.1761 21.0256 67.0795 21.4631C67.983 21.9006 68.6847 22.4915 69.1847 23.2358C69.6903 23.9744 69.9403 24.804 69.9347 25.7244C69.9403 26.7017 69.6364 27.517 69.0227 28.1705C68.4148 28.8239 67.6222 29.2386 66.6449 29.4148V29.5511C67.929 29.7159 68.9063 30.1619 69.5767 30.8892C70.2528 31.6108 70.5881 32.5142 70.5824 33.5994C70.5881 34.5938 70.3011 35.4773 69.7216 36.25C69.1477 37.0227 68.3551 37.6307 67.3438 38.0739C66.3324 38.517 65.1733 38.7386 63.8665 38.7386ZM80.0788 38.8835C78.6129 38.8778 77.3516 38.517 76.2947 37.8011C75.2436 37.0852 74.4339 36.0483 73.8658 34.6903C73.3033 33.3324 73.0249 31.6989 73.0305 29.7898C73.0305 27.8864 73.3118 26.2642 73.8743 24.9233C74.4425 23.5824 75.2521 22.5625 76.3033 21.8636C77.3601 21.1591 78.6186 20.8068 80.0788 20.8068C81.5391 20.8068 82.7947 21.1591 83.8459 21.8636C84.9027 22.5682 85.7152 23.5909 86.2834 24.9318C86.8516 26.267 87.1328 27.8864 87.1271 29.7898C87.1271 31.7045 86.843 33.3409 86.2749 34.6989C85.7124 36.0568 84.9055 37.0937 83.8544 37.8097C82.8033 38.5256 81.5447 38.8835 80.0788 38.8835ZM80.0788 35.8239C81.0788 35.8239 81.8771 35.321 82.4737 34.3153C83.0703 33.3097 83.3658 31.8011 83.3601 29.7898C83.3601 28.4659 83.2237 27.3636 82.951 26.483C82.6839 25.6023 82.3033 24.9403 81.8089 24.4972C81.3203 24.054 80.7436 23.8324 80.0788 23.8324C79.0845 23.8324 78.2891 24.3295 77.6925 25.3239C77.0959 26.3182 76.7947 27.8068 76.7891 29.7898C76.7891 31.1307 76.9226 32.25 77.1896 33.1477C77.4624 34.0398 77.8459 34.7102 78.3402 35.1591C78.8345 35.6023 79.4141 35.8239 80.0788 35.8239ZM99.3125 35.2273V34.3068C99.3125 33.608 99.4602 32.9659 99.7557 32.3807C100.057 31.7898 100.491 31.3182 101.06 30.9659C101.634 30.608 102.332 30.429 103.156 30.429C103.991 30.429 104.693 30.6051 105.261 30.9574C105.835 31.3097 106.267 31.7812 106.557 32.3722C106.852 32.9574 107 33.6023 107 34.3068V35.2273C107 35.9261 106.852 36.571 106.557 37.1619C106.261 37.7472 105.827 38.2159 105.253 38.5682C104.679 38.9261 103.98 39.1051 103.156 39.1051C102.321 39.1051 101.619 38.9261 101.051 38.5682C100.483 38.2159 100.051 37.7472 99.7557 37.1619C99.4602 36.571 99.3125 35.9261 99.3125 35.2273ZM101.793 34.3068V35.2273C101.793 35.6307 101.889 36.0114 102.082 36.3693C102.281 36.7273 102.639 36.9062 103.156 36.9062C103.673 36.9062 104.026 36.7301 104.213 36.3778C104.406 36.0256 104.503 35.642 104.503 35.2273V34.3068C104.503 33.892 104.412 33.5057 104.23 33.1477C104.048 32.7898 103.69 32.6108 103.156 32.6108C102.645 32.6108 102.29 32.7898 102.091 33.1477C101.892 33.5057 101.793 33.892 101.793 34.3068ZM90.3551 25.2386V24.3182C90.3551 23.6136 90.5057 22.9687 90.8068 22.3835C91.108 21.7926 91.5426 21.321 92.1108 20.9688C92.6847 20.6165 93.3778 20.4403 94.1903 20.4403C95.0313 20.4403 95.7358 20.6165 96.304 20.9688C96.8722 21.321 97.304 21.7926 97.5994 22.3835C97.8949 22.9687 98.0426 23.6136 98.0426 24.3182V25.2386C98.0426 25.9432 97.892 26.5881 97.5909 27.1733C97.2955 27.7585 96.8608 28.2273 96.2869 28.5795C95.7188 28.9261 95.0199 29.0994 94.1903 29.0994C93.3608 29.0994 92.6591 28.9233 92.0852 28.571C91.517 28.2131 91.0852 27.7443 90.7898 27.1648C90.5 26.5795 90.3551 25.9375 90.3551 25.2386ZM92.8523 24.3182V25.2386C92.8523 25.6534 92.9489 26.0369 93.142 26.3892C93.3409 26.7415 93.6903 26.9176 94.1903 26.9176C94.7131 26.9176 95.0682 26.7415 95.2557 26.3892C95.4489 26.0369 95.5455 25.6534 95.5455 25.2386V24.3182C95.5455 23.9034 95.4545 23.517 95.2727 23.1591C95.0909 22.8011 94.7301 22.6222 94.1903 22.6222C93.6847 22.6222 93.3352 22.804 93.142 23.1676C92.9489 23.5312 92.8523 23.9148 92.8523 24.3182ZM91.4801 38.5L103.48 21.0455H105.713L93.7131 38.5H91.4801Z" fill="#292929"/>
</svg>
