<svg width="31" height="31" viewBox="0 0 31 31" fill="none" xmlns="http://www.w3.org/2000/svg">
<circle cx="15.5" cy="15.5" r="15.5" fill="#E4E4E4"/>
<path d="M13.8214 19.4276V19.3376C13.8314 18.3832 13.9313 17.6237 14.1212 17.0591C14.3111 16.4945 14.5809 16.0372 14.9307 15.6875C15.2805 15.3377 15.7002 15.0154 16.1899 14.7206C16.4847 14.5407 16.7495 14.3284 16.9844 14.0835C17.2192 13.8337 17.4041 13.5464 17.539 13.2216C17.6789 12.8968 17.7489 12.537 17.7489 12.1423C17.7489 11.6526 17.6339 11.2279 17.4041 10.8681C17.1742 10.5083 16.8669 10.231 16.4822 10.0361C16.0974 9.84125 15.6702 9.74381 15.2005 9.74381C14.7908 9.74381 14.396 9.82875 14.0163 9.99864C13.6365 10.1685 13.3192 10.4359 13.0644 10.8006C12.8096 11.1654 12.6622 11.6426 12.6222 12.2322H10.7334C10.7734 11.3828 10.9932 10.6557 11.393 10.0511C11.7977 9.4465 12.3299 8.9843 12.9894 8.6645C13.654 8.34471 14.391 8.18481 15.2005 8.18481C16.0799 8.18481 16.8445 8.3597 17.494 8.70948C18.1486 9.05925 18.6533 9.53894 19.0081 10.1485C19.3678 10.7582 19.5477 11.4527 19.5477 12.2322C19.5477 12.7818 19.4628 13.279 19.2929 13.7237C19.128 14.1685 18.8881 14.5657 18.5733 14.9155C18.2635 15.2652 17.8888 15.575 17.4491 15.8449C17.0093 16.1197 16.6571 16.4095 16.3922 16.7143C16.1274 17.0141 15.935 17.3714 15.8151 17.7861C15.6952 18.2009 15.6302 18.718 15.6202 19.3376V19.4276H13.8214ZM14.7808 23.8647C14.411 23.8647 14.0937 23.7323 13.8289 23.4675C13.5641 23.2026 13.4317 22.8853 13.4317 22.5156C13.4317 22.1458 13.5641 21.8285 13.8289 21.5637C14.0937 21.2989 14.411 21.1664 14.7808 21.1664C15.1505 21.1664 15.4678 21.2989 15.7327 21.5637C15.9975 21.8285 16.1299 22.1458 16.1299 22.5156C16.1299 22.7604 16.0675 22.9853 15.9425 23.1901C15.8226 23.395 15.6602 23.5599 15.4554 23.6848C15.2555 23.8047 15.0306 23.8647 14.7808 23.8647Z" fill="#292929"/>
</svg>
